<?xml version="1.0" standalone="no"?>
<!DOCTYPE svg PUBLIC "-//W3C//DTD SVG 20010904//EN"
 "http://www.w3.org/TR/2001/REC-SVG-20010904/DTD/svg10.dtd">
<svg version="1.0" xmlns="http://www.w3.org/2000/svg"
 width="921.000000pt" height="921.000000pt" viewBox="0 0 921.000000 921.000000"
 preserveAspectRatio="xMidYMid meet">
<metadata>
Created by potrace 1.11, written by Peter Selinger 2001-2013
</metadata>
<g transform="translate(0.000000,921.000000) scale(0.100000,-0.100000)"
fill="#000000" stroke="none">
<path d="M4208 9030 c-738 -71 -1405 -339 -1983 -798 -154 -122 -445 -413
-567 -567 -431 -543 -686 -1144 -783 -1845 -22 -160 -31 -582 -16 -762 63
-737 335 -1418 799 -2003 125 -157 414 -446 574 -573 225 -178 537 -370 761
-468 l87 -39 0 -887 0 -888 1363 2 1362 3 -2 66 c-10 301 -338 489 -985 565
l-148 17 0 412 0 412 93 7 c523 38 977 164 1437 396 942 477 1640 1350 1899
2376 81 323 106 532 106 904 0 311 -8 411 -51 650 -175 961 -705 1790 -1509
2365 -251 179 -612 363 -915 467 -224 76 -505 142 -750 174 -143 19 -631 28
-772 14z m722 -435 c610 -80 1163 -314 1637 -691 125 -99 406 -381 505 -504
382 -481 612 -1029 694 -1655 24 -180 24 -590 1 -770 -83 -629 -311 -1169
-703 -1665 -87 -110 -385 -407 -492 -490 -471 -367 -948 -580 -1507 -673 -812
-137 -1643 40 -2331 495 -196 130 -320 232 -505 417 -185 185 -287 309 -417
505 -280 423 -446 872 -518 1401 -25 183 -25 607 0 790 85 623 311 1161 687
1636 105 133 384 413 516 517 523 413 1139 653 1818 706 110 9 496 -3 615 -19z
m-1148 -6839 c92 -19 213 -40 268 -47 l100 -12 0 -464 c0 -254 -2 -463 -5
-463 -3 0 -45 9 -93 19 -82 19 -239 42 -379 56 l-63 7 0 469 c0 258 1 469 3
469 1 0 77 -16 169 -34z"/>
<path d="M2796 5844 c-166 -40 -314 -181 -361 -346 -93 -322 153 -648 488
-648 113 0 242 50 328 128 110 99 169 230 169 376 0 145 -46 254 -149 357
-128 128 -299 176 -475 133z"/>
<path d="M4418 5261 c-159 -52 -282 -177 -329 -333 -28 -92 -23 -244 10 -330
48 -124 164 -240 289 -290 49 -19 75 -23 182 -23 107 0 133 4 182 23 125 50
240 165 290 290 19 49 23 75 23 182 0 107 -4 133 -23 182 -50 125 -166 241
-290 289 -81 32 -253 37 -334 10z"/>
</g>
</svg>
